<?xml version="1.0" encoding="UTF-8" standalone="yes"?><svg xmlns="http://www.w3.org/2000/svg" xmlns:xlink="http://www.w3.org/1999/xlink" height="745px" style="width:1189px;height:745px;" version="1.1" viewBox="0 0 1189 745" width="1189px"><defs><filter height="300%" id="f1" width="300%" x="-1" y="-1"><feGaussianBlur result="blurOut" stdDeviation="2.0"/><feColorMatrix in="blurOut" result="blurOut2" type="matrix" values="0 0 0 0 0 0 0 0 0 0 0 0 0 0 0 0 0 0 .4 0"/><feOffset dx="4.0" dy="4.0" in="blurOut2" result="blurOut3"/><feBlend in="SourceGraphic" in2="blurOut3" mode="normal"/></filter></defs><g><rect fill="#FEFECE" filter="url(#f1)" height="32" style="stroke: #A80036; stroke-width: 1.5;" width="83" x="478.5" y="8"/><ellipse cx="493.5" cy="24" fill="#ADD1B2" rx="11" ry="11" style="stroke: #A80036; stroke-width: 1.0;"/><path d="M496.4731,29.6431 Q495.8921,29.9419 495.2529,30.0913 Q494.6138,30.2407 493.9082,30.2407 Q491.4014,30.2407 490.0815,28.5889 Q488.7617,26.937 488.7617,23.8159 Q488.7617,20.6865 490.0815,19.0347 Q491.4014,17.3828 493.9082,17.3828 Q494.6138,17.3828 495.2612,17.5322 Q495.9087,17.6816 496.4731,17.9805 L496.4731,20.7031 Q495.8423,20.1221 495.2488,19.8523 Q494.6553,19.5825 494.0244,19.5825 Q492.6797,19.5825 491.9949,20.6492 Q491.3101,21.7158 491.3101,23.8159 Q491.3101,25.9077 491.9949,26.9744 Q492.6797,28.041 494.0244,28.041 Q494.6553,28.041 495.2488,27.7712 Q495.8423,27.5015 496.4731,26.9204 Z "/><text fill="#000000" font-family="sans-serif" font-size="12" lengthAdjust="spacingAndGlyphs" textLength="51" x="507.5" y="28.5352">CFR Title</text><rect fill="#FEFECE" filter="url(#f1)" height="32" style="stroke: #A80036; stroke-width: 1.5;" width="81" x="479.5" y="101"/><ellipse cx="494.5" cy="117" fill="#ADD1B2" rx="11" ry="11" style="stroke: #A80036; stroke-width: 1.0;"/><path d="M497.4731,122.6431 Q496.8921,122.9419 496.2529,123.0913 Q495.6138,123.2407 494.9082,123.2407 Q492.4014,123.2407 491.0815,121.5889 Q489.7617,119.937 489.7617,116.8159 Q489.7617,113.6865 491.0815,112.0347 Q492.4014,110.3828 494.9082,110.3828 Q495.6138,110.3828 496.2612,110.5322 Q496.9087,110.6816 497.4731,110.9805 L497.4731,113.7031 Q496.8423,113.1221 496.2488,112.8523 Q495.6553,112.5825 495.0244,112.5825 Q493.6797,112.5825 492.9949,113.6492 Q492.3101,114.7158 492.3101,116.8159 Q492.3101,118.9077 492.9949,119.9744 Q493.6797,121.041 495.0244,121.041 Q495.6553,121.041 496.2488,120.7712 Q496.8423,120.5015 497.4731,119.9204 Z "/><text fill="#000000" font-family="sans-serif" font-size="12" lengthAdjust="spacingAndGlyphs" textLength="49" x="508.5" y="121.5352">CFR Part</text><rect fill="#FEFECE" filter="url(#f1)" height="32" style="stroke: #A80036; stroke-width: 1.5;" width="77" x="279.5" y="401"/><ellipse cx="294.5" cy="417" fill="#ADD1B2" rx="11" ry="11" style="stroke: #A80036; stroke-width: 1.0;"/><path d="M297.4731,422.6431 Q296.8921,422.9419 296.2529,423.0913 Q295.6138,423.2407 294.9082,423.2407 Q292.4014,423.2407 291.0815,421.5889 Q289.7617,419.937 289.7617,416.8159 Q289.7617,413.6865 291.0815,412.0347 Q292.4014,410.3828 294.9082,410.3828 Q295.6138,410.3828 296.2612,410.5322 Q296.9087,410.6816 297.4731,410.9805 L297.4731,413.7031 Q296.8423,413.1221 296.2488,412.8523 Q295.6553,412.5825 295.0244,412.5825 Q293.6797,412.5825 292.9949,413.6492 Q292.3101,414.7158 292.3101,416.8159 Q292.3101,418.9077 292.9949,419.9744 Q293.6797,421.041 295.0244,421.041 Q295.6553,421.041 296.2488,420.7712 Q296.8423,420.5015 297.4731,419.9204 Z "/><text fill="#000000" font-family="sans-serif" font-size="12" lengthAdjust="spacingAndGlyphs" textLength="45" x="308.5" y="421.5352">Subpart</text><rect fill="#FEFECE" filter="url(#f1)" height="32" style="stroke: #A80036; stroke-width: 1.5;" width="116" x="803" y="204.5"/><ellipse cx="818" cy="220.5" fill="#ADD1B2" rx="11" ry="11" style="stroke: #A80036; stroke-width: 1.0;"/><path d="M820.9731,226.1431 Q820.3921,226.4419 819.7529,226.5913 Q819.1138,226.7407 818.4082,226.7407 Q815.9014,226.7407 814.5815,225.0889 Q813.2617,223.437 813.2617,220.3159 Q813.2617,217.1865 814.5815,215.5347 Q815.9014,213.8828 818.4082,213.8828 Q819.1138,213.8828 819.7612,214.0322 Q820.4087,214.1816 820.9731,214.4805 L820.9731,217.2031 Q820.3423,216.6221 819.7488,216.3523 Q819.1553,216.0825 818.5244,216.0825 Q817.1797,216.0825 816.4949,217.1492 Q815.8101,218.2158 815.8101,220.3159 Q815.8101,222.4077 816.4949,223.4744 Q817.1797,224.541 818.5244,224.541 Q819.1553,224.541 819.7488,224.2712 Q820.3423,224.0015 820.9731,223.4204 Z "/><text fill="#000000" font-family="sans-serif" font-size="12" lengthAdjust="spacingAndGlyphs" textLength="84" x="832" y="225.0352">Proposed Rule</text><rect fill="#FEFECE" filter="url(#f1)" height="52.9551" style="stroke: #A80036; stroke-width: 1.5;" width="111" x="656.5" y="194"/><ellipse cx="682.3" cy="210" fill="#ADD1B2" rx="11" ry="11" style="stroke: #A80036; stroke-width: 1.0;"/><path d="M685.2731,215.6431 Q684.6921,215.9419 684.0529,216.0913 Q683.4138,216.2407 682.7082,216.2407 Q680.2014,216.2407 678.8815,214.5889 Q677.5617,212.937 677.5617,209.8159 Q677.5617,206.6865 678.8815,205.0347 Q680.2014,203.3828 682.7082,203.3828 Q683.4138,203.3828 684.0612,203.5322 Q684.7087,203.6816 685.2731,203.9805 L685.2731,206.7031 Q684.6423,206.1221 684.0488,205.8523 Q683.4553,205.5825 682.8244,205.5825 Q681.4797,205.5825 680.7949,206.6492 Q680.1101,207.7158 680.1101,209.8159 Q680.1101,211.9077 680.7949,212.9744 Q681.4797,214.041 682.8244,214.041 Q683.4553,214.041 684.0488,213.7712 Q684.6423,213.5015 685.2731,212.9204 Z "/><text fill="#000000" font-family="sans-serif" font-size="12" lengthAdjust="spacingAndGlyphs" textLength="55" x="698.7" y="214.5352">Final Rule</text><line style="stroke: #A80036; stroke-width: 1.5;" x1="657.5" x2="766.5" y1="226" y2="226"/><text fill="#000000" font-family="sans-serif" font-size="11" lengthAdjust="spacingAndGlyphs" textLength="99" x="662.5" y="240.6348">document number</text><rect fill="#FEFECE" filter="url(#f1)" height="52.9551" style="stroke: #A80036; stroke-width: 1.5;" width="83" x="478.5" y="194"/><ellipse cx="497.1" cy="210" fill="#ADD1B2" rx="11" ry="11" style="stroke: #A80036; stroke-width: 1.0;"/><path d="M500.0731,215.6431 Q499.4921,215.9419 498.8529,216.0913 Q498.2138,216.2407 497.5082,216.2407 Q495.0014,216.2407 493.6815,214.5889 Q492.3617,212.937 492.3617,209.8159 Q492.3617,206.6865 493.6815,205.0347 Q495.0014,203.3828 497.5082,203.3828 Q498.2138,203.3828 498.8612,203.5322 Q499.5087,203.6816 500.0731,203.9805 L500.0731,206.7031 Q499.4423,206.1221 498.8488,205.8523 Q498.2553,205.5825 497.6244,205.5825 Q496.2797,205.5825 495.5949,206.6492 Q494.9101,207.7158 494.9101,209.8159 Q494.9101,211.9077 495.5949,212.9744 Q496.2797,214.041 497.6244,214.041 Q498.2553,214.041 498.8488,213.7712 Q499.4423,213.5015 500.0731,212.9204 Z "/><text fill="#000000" font-family="sans-serif" font-size="12" lengthAdjust="spacingAndGlyphs" textLength="43" x="511.9" y="214.5352">Version</text><line style="stroke: #A80036; stroke-width: 1.5;" x1="479.5" x2="560.5" y1="226" y2="226"/><text fill="#000000" font-family="sans-serif" font-size="11" lengthAdjust="spacingAndGlyphs" textLength="71" x="484.5" y="240.6348">effective date</text><rect fill="#FEFECE" filter="url(#f1)" height="32" style="stroke: #A80036; stroke-width: 1.5;" width="68" x="780" y="101"/><ellipse cx="795" cy="117" fill="#ADD1B2" rx="11" ry="11" style="stroke: #A80036; stroke-width: 1.0;"/><path d="M797.9731,122.6431 Q797.3921,122.9419 796.7529,123.0913 Q796.1138,123.2407 795.4082,123.2407 Q792.9014,123.2407 791.5815,121.5889 Q790.2617,119.937 790.2617,116.8159 Q790.2617,113.6865 791.5815,112.0347 Q792.9014,110.3828 795.4082,110.3828 Q796.1138,110.3828 796.7612,110.5322 Q797.4087,110.6816 797.9731,110.9805 L797.9731,113.7031 Q797.3423,113.1221 796.7488,112.8523 Q796.1553,112.5825 795.5244,112.5825 Q794.1797,112.5825 793.4949,113.6492 Q792.8101,114.7158 792.8101,116.8159 Q792.8101,118.9077 793.4949,119.9744 Q794.1797,121.041 795.5244,121.041 Q796.1553,121.041 796.7488,120.7712 Q797.3423,120.5015 797.9731,119.9204 Z "/><text fill="#000000" font-family="sans-serif" font-size="12" lengthAdjust="spacingAndGlyphs" textLength="36" x="809" y="121.5352">Notice</text><rect fill="#FEFECE" filter="url(#f1)" height="32" style="stroke: #A80036; stroke-width: 1.5;" width="98" x="471" y="308"/><ellipse cx="486" cy="324" fill="#ADD1B2" rx="11" ry="11" style="stroke: #A80036; stroke-width: 1.0;"/><path d="M488.9731,329.6431 Q488.3921,329.9419 487.7529,330.0913 Q487.1138,330.2407 486.4082,330.2407 Q483.9014,330.2407 482.5815,328.5889 Q481.2617,326.937 481.2617,323.8159 Q481.2617,320.6865 482.5815,319.0347 Q483.9014,317.3828 486.4082,317.3828 Q487.1138,317.3828 487.7612,317.5322 Q488.4087,317.6816 488.9731,317.9805 L488.9731,320.7031 Q488.3423,320.1221 487.7488,319.8523 Q487.1553,319.5825 486.5244,319.5825 Q485.1797,319.5825 484.4949,320.6492 Q483.8101,321.7158 483.8101,323.8159 Q483.8101,325.9077 484.4949,326.9744 Q485.1797,328.041 486.5244,328.041 Q487.1553,328.041 487.7488,327.7712 Q488.3423,327.5015 488.9731,326.9204 Z "/><text fill="#000000" font-family="sans-serif" font-size="12" lengthAdjust="spacingAndGlyphs" textLength="66" x="500" y="328.5352">Component</text><rect fill="#FEFECE" filter="url(#f1)" height="32" style="stroke: #A80036; stroke-width: 1.5;" width="72" x="374" y="494"/><ellipse cx="389" cy="510" fill="#ADD1B2" rx="11" ry="11" style="stroke: #A80036; stroke-width: 1.0;"/><path d="M391.9731,515.6431 Q391.3921,515.9419 390.7529,516.0913 Q390.1138,516.2407 389.4082,516.2407 Q386.9014,516.2407 385.5815,514.5889 Q384.2617,512.937 384.2617,509.8159 Q384.2617,506.6865 385.5815,505.0347 Q386.9014,503.3828 389.4082,503.3828 Q390.1138,503.3828 390.7612,503.5322 Q391.4087,503.6816 391.9731,503.9805 L391.9731,506.7031 Q391.3423,506.1221 390.7488,505.8523 Q390.1553,505.5825 389.5244,505.5825 Q388.1797,505.5825 387.4949,506.6492 Q386.8101,507.7158 386.8101,509.8159 Q386.8101,511.9077 387.4949,512.9744 Q388.1797,514.041 389.5244,514.041 Q390.1553,514.041 390.7488,513.7712 Q391.3423,513.5015 391.9731,512.9204 Z "/><text fill="#000000" font-family="sans-serif" font-size="12" lengthAdjust="spacingAndGlyphs" textLength="40" x="403" y="514.5352">Section</text><rect fill="#FEFECE" filter="url(#f1)" height="32" style="stroke: #A80036; stroke-width: 1.5;" width="114" x="463" y="401"/><ellipse cx="478" cy="417" fill="#ADD1B2" rx="11" ry="11" style="stroke: #A80036; stroke-width: 1.0;"/><path d="M480.9731,422.6431 Q480.3921,422.9419 479.7529,423.0913 Q479.1138,423.2407 478.4082,423.2407 Q475.9014,423.2407 474.5815,421.5889 Q473.2617,419.937 473.2617,416.8159 Q473.2617,413.6865 474.5815,412.0347 Q475.9014,410.3828 478.4082,410.3828 Q479.1138,410.3828 479.7612,410.5322 Q480.4087,410.6816 480.9731,410.9805 L480.9731,413.7031 Q480.3423,413.1221 479.7488,412.8523 Q479.1553,412.5825 478.5244,412.5825 Q477.1797,412.5825 476.4949,413.6492 Q475.8101,414.7158 475.8101,416.8159 Q475.8101,418.9077 476.4949,419.9744 Q477.1797,421.041 478.5244,421.041 Q479.1553,421.041 479.7488,420.7712 Q480.3423,420.5015 480.9731,419.9204 Z "/><text fill="#000000" font-family="sans-serif" font-size="12" lengthAdjust="spacingAndGlyphs" textLength="82" x="492" y="421.5352">Subject Group</text><rect fill="#FEFECE" filter="url(#f1)" height="32" style="stroke: #A80036; stroke-width: 1.5;" width="88" x="612" y="401"/><ellipse cx="627" cy="417" fill="#ADD1B2" rx="11" ry="11" style="stroke: #A80036; stroke-width: 1.0;"/><path d="M629.9731,422.6431 Q629.3921,422.9419 628.7529,423.0913 Q628.1138,423.2407 627.4082,423.2407 Q624.9014,423.2407 623.5815,421.5889 Q622.2617,419.937 622.2617,416.8159 Q622.2617,413.6865 623.5815,412.0347 Q624.9014,410.3828 627.4082,410.3828 Q628.1138,410.3828 628.7612,410.5322 Q629.4087,410.6816 629.9731,410.9805 L629.9731,413.7031 Q629.3423,413.1221 628.7488,412.8523 Q628.1553,412.5825 627.5244,412.5825 Q626.1797,412.5825 625.4949,413.6492 Q624.8101,414.7158 624.8101,416.8159 Q624.8101,418.9077 625.4949,419.9744 Q626.1797,421.041 627.5244,421.041 Q628.1553,421.041 628.7488,420.7712 Q629.3423,420.5015 629.9731,419.9204 Z "/><text fill="#000000" font-family="sans-serif" font-size="12" lengthAdjust="spacingAndGlyphs" textLength="56" x="641" y="421.5352">Appendix</text><rect fill="#FEFECE" filter="url(#f1)" height="32" style="stroke: #A80036; stroke-width: 1.5;" width="110" x="735" y="401"/><ellipse cx="750" cy="417" fill="#ADD1B2" rx="11" ry="11" style="stroke: #A80036; stroke-width: 1.0;"/><path d="M752.9731,422.6431 Q752.3921,422.9419 751.7529,423.0913 Q751.1138,423.2407 750.4082,423.2407 Q747.9014,423.2407 746.5815,421.5889 Q745.2617,419.937 745.2617,416.8159 Q745.2617,413.6865 746.5815,412.0347 Q747.9014,410.3828 750.4082,410.3828 Q751.1138,410.3828 751.7612,410.5322 Q752.4087,410.6816 752.9731,410.9805 L752.9731,413.7031 Q752.3423,413.1221 751.7488,412.8523 Q751.1553,412.5825 750.5244,412.5825 Q749.1797,412.5825 748.4949,413.6492 Q747.8101,414.7158 747.8101,416.8159 Q747.8101,418.9077 748.4949,419.9744 Q749.1797,421.041 750.5244,421.041 Q751.1553,421.041 751.7488,420.7712 Q752.3423,420.5015 752.9731,419.9204 Z "/><text fill="#000000" font-family="sans-serif" font-size="12" lengthAdjust="spacingAndGlyphs" textLength="78" x="764" y="421.5352">Interpretation</text><rect fill="#FEFECE" filter="url(#f1)" height="32" style="stroke: #A80036; stroke-width: 1.5;" width="92" x="364" y="599"/><ellipse cx="379" cy="615" fill="#ADD1B2" rx="11" ry="11" style="stroke: #A80036; stroke-width: 1.0;"/><path d="M381.9731,620.6431 Q381.3921,620.9419 380.7529,621.0913 Q380.1138,621.2407 379.4082,621.2407 Q376.9014,621.2407 375.5815,619.5889 Q374.2617,617.937 374.2617,614.8159 Q374.2617,611.6865 375.5815,610.0347 Q376.9014,608.3828 379.4082,608.3828 Q380.1138,608.3828 380.7612,608.5322 Q381.4087,608.6816 381.9731,608.9805 L381.9731,611.7031 Q381.3423,611.1221 380.7488,610.8523 Q380.1553,610.5825 379.5244,610.5825 Q378.1797,610.5825 377.4949,611.6492 Q376.8101,612.7158 376.8101,614.8159 Q376.8101,616.9077 377.4949,617.9744 Q378.1797,619.041 379.5244,619.041 Q380.1553,619.041 380.7488,618.7712 Q381.3423,618.5015 381.9731,617.9204 Z "/><text fill="#000000" font-family="sans-serif" font-size="12" lengthAdjust="spacingAndGlyphs" textLength="60" x="393" y="619.5352">Paragraph</text><rect fill="#FEFECE" filter="url(#f1)" height="32" style="stroke: #A80036; stroke-width: 1.5;" width="114" x="353" y="704"/><ellipse cx="368" cy="720" fill="#ADD1B2" rx="11" ry="11" style="stroke: #A80036; stroke-width: 1.0;"/><path d="M370.9731,725.6431 Q370.3921,725.9419 369.7529,726.0913 Q369.1138,726.2407 368.4082,726.2407 Q365.9014,726.2407 364.5815,724.5889 Q363.2617,722.937 363.2617,719.8159 Q363.2617,716.6865 364.5815,715.0347 Q365.9014,713.3828 368.4082,713.3828 Q369.1138,713.3828 369.7612,713.5322 Q370.4087,713.6816 370.9731,713.9805 L370.9731,716.7031 Q370.3423,716.1221 369.7488,715.8523 Q369.1553,715.5825 368.5244,715.5825 Q367.1797,715.5825 366.4949,716.6492 Q365.8101,717.7158 365.8101,719.8159 Q365.8101,721.9077 366.4949,722.9744 Q367.1797,724.041 368.5244,724.041 Q369.1553,724.041 369.7488,723.7712 Q370.3423,723.5015 370.9731,722.9204 Z "/><text fill="#000000" font-family="sans-serif" font-size="12" lengthAdjust="spacingAndGlyphs" textLength="82" x="382" y="724.5352">Subparagraph</text><polygon fill="#F0F8FF" filter="url(#f1)" points="631.5,11.5,631.5,36.8105,868.5,36.8105,868.5,21.5,858.5,11.5,631.5,11.5" style="stroke: #A80036; stroke-width: 1.0;"/><polygon fill="#F0F8FF" points="631.5,11.5,631.5,20,561.777,24,631.5,28,631.5,36.8105,868.5,36.8105,868.5,21.5,858.5,11.5,631.5,11.5" style="stroke: #A80036; stroke-width: 1.0;"/><line style="stroke: #A80036; stroke-width: 1.0;" x1="858.5" x2="858.5" y1="11.5" y2="21.5"/><line style="stroke: #A80036; stroke-width: 1.0;" x1="868.5" x2="858.5" y1="21.5" y2="21.5"/><text fill="#000000" font-family="sans-serif" font-size="13" lengthAdjust="spacingAndGlyphs" textLength="216" x="637.5" y="29.0684">Title 40 Protection of Environment</text><polygon fill="#F0F8FF" filter="url(#f1)" points="6,104.5,6,129.8105,410,129.8105,410,114.5,400,104.5,6,104.5" style="stroke: #A80036; stroke-width: 1.0;"/><polygon fill="#F0F8FF" points="6,104.5,6,129.8105,410,129.8105,410,122.5,479.183,117,410,114.5,410,114.5,400,104.5,6,104.5" style="stroke: #A80036; stroke-width: 1.0;"/><line style="stroke: #A80036; stroke-width: 1.0;" x1="400" x2="400" y1="104.5" y2="114.5"/><line style="stroke: #A80036; stroke-width: 1.0;" x1="410" x2="400" y1="114.5" y2="114.5"/><text fill="#000000" font-family="sans-serif" font-size="13" lengthAdjust="spacingAndGlyphs" textLength="383" x="12" y="122.0684">262 Standards Applicable To Generators Of Hazardous Waste</text><polygon fill="#F0F8FF" filter="url(#f1)" points="48,404.5,48,429.8105,210,429.8105,210,414.5,200,404.5,48,404.5" style="stroke: #A80036; stroke-width: 1.0;"/><polygon fill="#F0F8FF" points="48,404.5,48,429.8105,210,429.8105,210,422.5,279.263,417,210,414.5,210,414.5,200,404.5,48,404.5" style="stroke: #A80036; stroke-width: 1.0;"/><line style="stroke: #A80036; stroke-width: 1.0;" x1="200" x2="200" y1="404.5" y2="414.5"/><line style="stroke: #A80036; stroke-width: 1.0;" x1="210" x2="200" y1="414.5" y2="414.5"/><text fill="#000000" font-family="sans-serif" font-size="13" lengthAdjust="spacingAndGlyphs" textLength="141" x="54" y="422.0684">"SUBPART A - General"</text><polygon fill="#F0F8FF" filter="url(#f1)" points="516,497.5,516,522.8105,800,522.8105,800,507.5,790,497.5,516,497.5" style="stroke: #A80036; stroke-width: 1.0;"/><polygon fill="#F0F8FF" points="516,497.5,516,506,446.328,510,516,514,516,522.8105,800,522.8105,800,507.5,790,497.5,516,497.5" style="stroke: #A80036; stroke-width: 1.0;"/><line style="stroke: #A80036; stroke-width: 1.0;" x1="790" x2="790" y1="497.5" y2="507.5"/><line style="stroke: #A80036; stroke-width: 1.0;" x1="800" x2="790" y1="507.5" y2="507.5"/><text fill="#000000" font-family="sans-serif" font-size="13" lengthAdjust="spacingAndGlyphs" textLength="263" x="522" y="515.0684">ยง 262.11 Hazardous waste determination.</text><polygon fill="#F0F8FF" filter="url(#f1)" points="526,587,526,642.9316,1180,642.9316,1180,597,1170,587,526,587" style="stroke: #A80036; stroke-width: 1.0;"/><polygon fill="#F0F8FF" points="526,587,526,611,456.29,615,526,619,526,642.9316,1180,642.9316,1180,597,1170,587,526,587" style="stroke: #A80036; stroke-width: 1.0;"/><line style="stroke: #A80036; stroke-width: 1.0;" x1="1170" x2="1170" y1="587" y2="597"/><line style="stroke: #A80036; stroke-width: 1.0;" x1="1180" x2="1170" y1="597" y2="597"/><text fill="#000000" font-family="sans-serif" font-size="13" lengthAdjust="spacingAndGlyphs" textLength="583" x="532" y="604.5684">Before transporting hazardous waste or offering hazardous waste for transportation off-site,</text><text fill="#000000" font-family="sans-serif" font-size="13" lengthAdjust="spacingAndGlyphs" textLength="633" x="532" y="619.8789">a generator must package the waste in accordance with the applicable Department of Transportation</text><text fill="#000000" font-family="sans-serif" font-size="13" lengthAdjust="spacingAndGlyphs" textLength="407" x="532" y="635.1895">regulations on packaging under 49 CFR parts 173, 178, and 179.</text><path d="M520,53.319 C520,69.067 520,88.035 520,100.951 " fill="none" style="stroke: #A80036; stroke-width: 1.0;"/><polygon fill="#A80036" points="520,40.027,516,46.027,520,52.027,524,46.027,520,40.027" style="stroke: #A80036; stroke-width: 1.0;"/><path d="M520,146.431 C520,161.249 520,179.237 520,193.658 " fill="none" style="stroke: #A80036; stroke-width: 1.0;"/><polygon fill="#A80036" points="520,133.416,516,139.416,520,145.416,524,139.416,520,133.416" style="stroke: #A80036; stroke-width: 1.0;"/><path d="M784.038,147.815 C769.423,162.359 752.013,179.683 737.97,193.658 " fill="none" style="stroke: #A80036; stroke-width: 1.0;"/><polygon fill="none" points="779.394,142.561,798.508,133.416,789.269,152.485,779.394,142.561" style="stroke: #A80036; stroke-width: 1.0;"/><path d="M829.562,151.608 C837.804,169.407 847.522,190.394 853.949,204.272 " fill="none" style="stroke: #A80036; stroke-width: 1.0;"/><polygon fill="none" points="823.19,154.506,821.138,133.416,835.894,148.623,823.19,154.506" style="stroke: #A80036; stroke-width: 1.0;"/><path d="M561.661,220.5 C589.344,220.5 626.016,220.5 656.21,220.5 " fill="none" style="stroke: #A80036; stroke-width: 1.0;"/><polygon fill="#000000" points="587,207.6553,581,210.6553,587,213.6553,587,207.6553" style="stroke: #000000; stroke-width: 1.0;"/><text fill="#000000" font-family="sans-serif" font-size="13" lengthAdjust="spacingAndGlyphs" textLength="45" x="593" y="214.0684">creates</text><text fill="#000000" font-family="sans-serif" font-size="13" lengthAdjust="spacingAndGlyphs" textLength="22" x="569.3956" y="234.196">1..*</text><text fill="#000000" font-family="sans-serif" font-size="13" lengthAdjust="spacingAndGlyphs" textLength="22" x="626.4874" y="233.9561">0..*</text><path d="M520,260.427 C520,276.973 520,295.293 520,307.811 " fill="none" style="stroke: #A80036; stroke-width: 1.0;"/><polygon fill="#A80036" points="520,247.113,516,253.113,520,259.113,524,253.113,520,247.113" style="stroke: #A80036; stroke-width: 1.0;"/><path d="M485.421,353.544 C471.252,366.743 455.702,383.39 445,401 C426.677,431.15 416.866,471.939 412.621,493.749 " fill="none" style="stroke: #A80036; stroke-width: 1.0;"/><polygon fill="none" points="480.872,348.222,500.5,340.238,490.135,358.72,480.872,348.222" style="stroke: #A80036; stroke-width: 1.0;"/><path d="M451.648,343.366 C429.518,350.421 405.221,359.377 384,370 C366.89,378.565 349.191,391.137 336.434,400.974 " fill="none" style="stroke: #A80036; stroke-width: 1.0;"/><polygon fill="none" points="449.638,336.661,470.809,337.544,453.708,350.056,449.638,336.661" style="stroke: #A80036; stroke-width: 1.0;"/><path d="M520,360.238 C520,374.363 520,389.88 520,400.951 " fill="none" style="stroke: #A80036; stroke-width: 1.0;"/><polygon fill="none" points="513,360.027,520,340.027,527,360.027,513,360.027" style="stroke: #A80036; stroke-width: 1.0;"/><path d="M559.112,351.171 C583.237,367.313 613.32,387.442 633.509,400.951 " fill="none" style="stroke: #A80036; stroke-width: 1.0;"/><polygon fill="none" points="555.187,356.967,542.458,340.027,562.973,345.331,555.187,356.967" style="stroke: #A80036; stroke-width: 1.0;"/><path d="M583.667,346.458 C633.402,363.221 701.258,386.091 745.349,400.951 " fill="none" style="stroke: #A80036; stroke-width: 1.0;"/><polygon fill="none" points="581.302,353.048,564.585,340.027,585.773,339.781,581.302,353.048" style="stroke: #A80036; stroke-width: 1.0;"/><path d="M342.801,442.531 C359.38,458.93 380.662,479.98 394.786,493.951 " fill="none" style="stroke: #A80036; stroke-width: 1.0;"/><polygon fill="#A80036" points="333.192,433.027,334.6452,440.0902,341.724,441.4653,340.2708,434.4022,333.192,433.027" style="stroke: #A80036; stroke-width: 1.0;"/><path d="M491.74,441.379 C471.729,457.934 445.477,479.651 428.191,493.951 " fill="none" style="stroke: #A80036; stroke-width: 1.0;"/><polygon fill="#A80036" points="501.836,433.027,494.6632,433.7695,492.5898,440.6761,499.7626,439.9336,501.836,433.027" style="stroke: #A80036; stroke-width: 1.0;"/><path d="M410,539.292 C410,558.487 410,583.121 410,598.74 " fill="none" style="stroke: #A80036; stroke-width: 1.0;"/><polygon fill="#A80036" points="410,526.198,406,532.198,410,538.198,414,532.198,410,526.198" style="stroke: #A80036; stroke-width: 1.0;"/><path d="M410,644.2917 C410,663.487 410,688.1213 410,703.7396 " fill="none" style="stroke: #A80036; stroke-width: 1.0;"/><polygon fill="#A80036" points="410,631.198,406,637.198,410,643.198,414,637.198,410,631.198" style="stroke: #A80036; stroke-width: 1.0;"/><path d="M480.292,711.8565 C493.056,712.894 502,715.6085 502,720 C502,725.7949 486.426,728.6698 467.05,728.6245 " fill="none" style="stroke: #A80036; stroke-width: 1.0;"/><polygon fill="#A80036" points="467.05,711.3755,472.9005,715.5911,479.0421,711.812,473.1915,707.5964,467.05,711.3755" style="stroke: #A80036; stroke-width: 1.0;"/></g></svg>